<svg width="28" height="28" viewBox="0 0 28 28" fill="none" xmlns="http://www.w3.org/2000/svg">
<path d="M25.6623 0.861328H2.30905C1.50941 0.861809 0.861168 1.51037 0.861328 2.31033V25.6636C0.861809 26.4632 1.51037 27.1115 2.31033 27.1113H14.8835V16.96H11.4741V12.9866H14.8835V10.0624C14.8835 6.67145 16.9537 4.82574 19.9786 4.82574C21.4275 4.82574 22.6725 4.93373 23.0354 4.98196V8.52612H20.9495C19.3038 8.52612 18.9851 9.30814 18.9851 10.4559V12.9866H22.92L22.4073 16.96H18.9851V27.1113H25.6623C26.4624 27.1115 27.1112 26.4631 27.1113 25.663C27.1113 25.6628 27.1113 25.6626 27.1113 25.6623V2.30905C27.111 1.50941 26.4623 0.861168 25.6623 0.861328Z" fill="white"/>
</svg>
