<svg width="121" height="25" viewBox="0 0 121 25" fill="none" xmlns="http://www.w3.org/2000/svg">
<path d="M22.9128 0.769043H2.06165C1.34768 0.769472 0.7689 1.34854 0.769043 2.0628V22.9139C0.769472 23.6279 1.34854 24.2067 2.0628 24.2065H13.2889V15.1428H10.2448V11.5952H13.2889V8.98433C13.2889 5.95665 15.1372 4.3087 17.838 4.3087C19.1317 4.3087 20.2433 4.40512 20.5673 4.44818V7.61261H18.7049C17.2355 7.61261 16.951 8.31084 16.951 9.33566V11.5952H20.4643L20.0066 15.1428H16.951V24.2065H22.9128C23.6272 24.2067 24.2064 23.6278 24.2065 22.9134C24.2065 22.9132 24.2065 22.9131 24.2065 22.9128V2.06165C24.2063 1.34768 23.627 0.7689 22.9128 0.769043Z" fill="white"/>
<path d="M42.312 17V5.72H49.48V7.064H43.976V10.664H49.144V12.008H43.976V17H42.312ZM54.6789 17.144C54.1349 17.144 53.6495 17.0373 53.2229 16.824C52.7962 16.6107 52.4549 16.3227 52.1989 15.96C51.9535 15.5973 51.8309 15.1867 51.8309 14.728C51.8309 14.152 51.9749 13.6987 52.2629 13.368C52.5615 13.0373 53.0469 12.7973 53.7189 12.648C54.4015 12.4987 55.3189 12.424 56.4709 12.424H57.0149V12.008C57.0149 11.4 56.8869 10.9627 56.6309 10.696C56.3749 10.4293 55.9535 10.296 55.3669 10.296C54.9189 10.296 54.4709 10.3653 54.0229 10.504C53.5749 10.632 53.1162 10.84 52.6469 11.128L52.1509 9.992C52.5562 9.704 53.0629 9.47467 53.6709 9.304C54.2789 9.13333 54.8602 9.048 55.4149 9.048C56.4815 9.048 57.2709 9.304 57.7829 9.816C58.2949 10.3173 58.5509 11.1067 58.5509 12.184V17H57.0309V15.704C56.8389 16.152 56.5402 16.504 56.1349 16.76C55.7295 17.016 55.2442 17.144 54.6789 17.144ZM54.9989 15.992C55.5749 15.992 56.0549 15.7893 56.4389 15.384C56.8229 14.9787 57.0149 14.4667 57.0149 13.848V13.416H56.4869C55.7082 13.416 55.0949 13.4533 54.6469 13.528C54.2095 13.6027 53.8949 13.7307 53.7029 13.912C53.5215 14.0827 53.4309 14.3227 53.4309 14.632C53.4309 15.0373 53.5695 15.368 53.8469 15.624C54.1242 15.8693 54.5082 15.992 54.9989 15.992ZM65.7166 17.144C64.9166 17.144 64.2233 16.9787 63.6366 16.648C63.0606 16.3067 62.6126 15.832 62.2926 15.224C61.9726 14.6053 61.8126 13.88 61.8126 13.048C61.8126 11.8107 62.1646 10.8347 62.8686 10.12C63.5726 9.40533 64.522 9.048 65.7166 9.048C66.2073 9.048 66.6926 9.13333 67.1726 9.304C67.6526 9.47467 68.0473 9.70933 68.3566 10.008L67.8446 11.144C67.546 10.8667 67.2153 10.664 66.8526 10.536C66.5006 10.3973 66.1646 10.328 65.8446 10.328C65.0873 10.328 64.5006 10.568 64.0846 11.048C63.6793 11.5173 63.4766 12.1893 63.4766 13.064C63.4766 13.9387 63.6793 14.6267 64.0846 15.128C64.5006 15.6187 65.0873 15.864 65.8446 15.864C66.1646 15.864 66.5006 15.8 66.8526 15.672C67.2153 15.5333 67.546 15.3253 67.8446 15.048L68.3566 16.2C68.0473 16.488 67.6473 16.7173 67.1566 16.888C66.6766 17.0587 66.1966 17.144 65.7166 17.144ZM74.7531 17.144C73.4731 17.144 72.4651 16.7867 71.7291 16.072C70.9931 15.3467 70.6251 14.36 70.6251 13.112C70.6251 12.312 70.7851 11.608 71.1051 11C71.4358 10.3813 71.8891 9.90133 72.4651 9.56C73.0411 9.21867 73.7025 9.048 74.4491 9.048C75.5265 9.048 76.3745 9.39467 76.9931 10.088C77.6118 10.7707 77.9211 11.7147 77.9211 12.92V13.464H72.1931C72.3105 15.0853 73.1691 15.896 74.7691 15.896C75.2171 15.896 75.6545 15.8267 76.0811 15.688C76.5185 15.5493 76.9291 15.32 77.3131 15L77.7931 16.12C77.4411 16.44 76.9878 16.6907 76.4331 16.872C75.8785 17.0533 75.3185 17.144 74.7531 17.144ZM74.5131 10.184C73.8411 10.184 73.3078 10.392 72.9131 10.808C72.5185 11.224 72.2785 11.7787 72.1931 12.472H76.5611C76.5291 11.7467 76.3371 11.1867 75.9851 10.792C75.6331 10.3867 75.1425 10.184 74.5131 10.184ZM85.3749 17.144C84.7775 17.144 84.2495 17.0107 83.7909 16.744C83.3322 16.4773 82.9909 16.12 82.7669 15.672V17H81.1829V5.72H82.7989V10.456C83.0335 10.0293 83.3749 9.688 83.8229 9.432C84.2815 9.176 84.7989 9.048 85.3749 9.048C86.0682 9.048 86.6709 9.21333 87.1829 9.544C87.7055 9.87467 88.1055 10.344 88.3829 10.952C88.6709 11.5493 88.8149 12.264 88.8149 13.096C88.8149 13.928 88.6709 14.648 88.3829 15.256C88.1055 15.864 87.7055 16.3333 87.1829 16.664C86.6709 16.984 86.0682 17.144 85.3749 17.144ZM84.9749 15.896C85.6469 15.896 86.1802 15.656 86.5749 15.176C86.9802 14.696 87.1829 14.0027 87.1829 13.096C87.1829 12.1893 86.9802 11.5013 86.5749 11.032C86.1802 10.552 85.6469 10.312 84.9749 10.312C84.3029 10.312 83.7642 10.552 83.3589 11.032C82.9642 11.5013 82.7669 12.1893 82.7669 13.096C82.7669 14.0027 82.9642 14.696 83.3589 15.176C83.7642 15.656 84.3029 15.896 84.9749 15.896ZM95.528 17.144C94.7387 17.144 94.056 16.9787 93.48 16.648C92.904 16.3173 92.456 15.8533 92.136 15.256C91.8267 14.648 91.672 13.928 91.672 13.096C91.672 12.264 91.8267 11.5493 92.136 10.952C92.456 10.344 92.904 9.87467 93.48 9.544C94.056 9.21333 94.7387 9.048 95.528 9.048C96.296 9.048 96.968 9.21333 97.544 9.544C98.12 9.87467 98.568 10.344 98.888 10.952C99.208 11.5493 99.368 12.264 99.368 13.096C99.368 13.928 99.208 14.648 98.888 15.256C98.568 15.8533 98.12 16.3173 97.544 16.648C96.968 16.9787 96.296 17.144 95.528 17.144ZM95.528 15.896C96.1893 15.896 96.7227 15.656 97.128 15.176C97.5333 14.696 97.736 14.0027 97.736 13.096C97.736 12.1893 97.5333 11.5013 97.128 11.032C96.7227 10.552 96.1893 10.312 95.528 10.312C94.856 10.312 94.3173 10.552 93.912 11.032C93.5067 11.5013 93.304 12.1893 93.304 13.096C93.304 14.0027 93.5067 14.696 93.912 15.176C94.3173 15.656 94.856 15.896 95.528 15.896ZM106.075 17.144C105.286 17.144 104.603 16.9787 104.027 16.648C103.451 16.3173 103.003 15.8533 102.683 15.256C102.374 14.648 102.219 13.928 102.219 13.096C102.219 12.264 102.374 11.5493 102.683 10.952C103.003 10.344 103.451 9.87467 104.027 9.544C104.603 9.21333 105.286 9.048 106.075 9.048C106.843 9.048 107.515 9.21333 108.091 9.544C108.667 9.87467 109.115 10.344 109.435 10.952C109.755 11.5493 109.915 12.264 109.915 13.096C109.915 13.928 109.755 14.648 109.435 15.256C109.115 15.8533 108.667 16.3173 108.091 16.648C107.515 16.9787 106.843 17.144 106.075 17.144ZM106.075 15.896C106.736 15.896 107.27 15.656 107.675 15.176C108.08 14.696 108.283 14.0027 108.283 13.096C108.283 12.1893 108.08 11.5013 107.675 11.032C107.27 10.552 106.736 10.312 106.075 10.312C105.403 10.312 104.864 10.552 104.459 11.032C104.054 11.5013 103.851 12.1893 103.851 13.096C103.851 14.0027 104.054 14.696 104.459 15.176C104.864 15.656 105.403 15.896 106.075 15.896ZM113.23 17V5.72H114.846V12.6H114.878L118.27 9.192H120.27L116.526 12.952L120.558 17H118.542L114.878 13.432H114.846V17H113.23Z" fill="white"/>
</svg>
