<svg width="231" height="214" viewBox="0 0 231 214" fill="none" xmlns="http://www.w3.org/2000/svg">
<path d="M145.098 120.821V214H231V140.438C231 100.61 226.252 71.7792 216.757 53.9458C204.295 30.1681 184.563 12.1861 157.561 0L137.977 31.2083C154.297 38.0444 166.314 48.2986 174.029 61.9708C181.744 75.3458 186.046 94.9625 186.936 120.821H145.098ZM7.12138 120.821V214H93.0231V140.438C93.0231 100.61 88.2755 71.7792 78.7803 53.9458C66.3179 30.1681 46.5857 12.1861 19.5838 0L0 31.2083C16.3198 38.0444 28.3372 48.2986 36.052 61.9708C43.7669 75.3458 48.0694 94.9625 48.9595 120.821H7.12138Z" fill="#121212" fill-opacity="0.05"/>
</svg>
